<svg width="136" height="30" fill="none" xmlns="http://www.w3.org/2000/svg"><path d="M5.04 12.644c.648-.863 1.536-1.565 2.664-2.104 1.152-.54 2.46-.81 3.924-.81 1.704 0 3.24.378 4.608 1.133a8.18 8.18 0 0 1 3.276 3.238c.816 1.381 1.224 2.989 1.224 4.823 0 1.835-.408 3.465-1.224 4.889a8.4 8.4 0 0 1-3.276 3.27c-1.368.777-2.904 1.165-4.608 1.165-1.488 0-2.796-.259-3.924-.777-1.104-.54-1.992-1.23-2.664-2.072v2.558H0V4h5.04v8.644Zm10.548 6.28c0-1.079-.252-2.007-.756-2.784a4.685 4.685 0 0 0-1.944-1.813 5.553 5.553 0 0 0-2.592-.615c-.912 0-1.776.216-2.592.648-.792.41-1.44 1.014-1.944 1.813-.48.798-.72 1.737-.72 2.816 0 1.08.24 2.018.72 2.817a5.243 5.243 0 0 0 1.944 1.845c.816.41 1.68.615 2.592.615.936 0 1.8-.216 2.592-.647a4.908 4.908 0 0 0 1.944-1.846c.504-.798.756-1.748.756-2.849Zm11.366-11.04c-.888 0-1.632-.247-2.232-.744-.576-.518-.864-1.154-.864-1.91 0-.755.288-1.381.864-1.877.6-.518 1.344-.777 2.232-.777.888 0 1.62.259 2.196.777.6.496.9 1.122.9 1.877 0 .756-.3 1.392-.9 1.91-.576.497-1.308.745-2.196.745Zm2.484 2.138v17.935h-5.04V10.022h5.04Zm16.788 17.935-6.768-7.64v7.64h-5.04V4h5.04v13.63l6.696-7.608h6.552l-8.784 9 8.856 8.935h-6.552Zm6.919-8.968c0-1.856.42-3.475 1.26-4.856.84-1.403 2.004-2.482 3.492-3.237 1.488-.777 3.192-1.166 5.112-1.166 2.472 0 4.512.561 6.12 1.684 1.632 1.1 2.724 2.654 3.276 4.662H66.97a3.509 3.509 0 0 0-1.476-1.813c-.672-.454-1.512-.68-2.52-.68-1.44 0-2.58.474-3.42 1.424-.84.928-1.26 2.256-1.26 3.982 0 1.705.42 3.033 1.26 3.982.84.928 1.98 1.392 3.42 1.392 2.04 0 3.372-.82 3.996-2.46h5.436c-.552 1.942-1.644 3.486-3.276 4.63-1.632 1.143-3.672 1.715-6.12 1.715-1.92 0-3.624-.378-5.112-1.133-1.476-.766-2.686-1.887-3.492-3.237-.84-1.403-1.26-3.033-1.26-4.889h-.001Zm26.993-6.183a6.835 6.835 0 0 1 2.52-2.234c1.056-.54 2.256-.81 3.6-.81v4.76h-1.332c-1.584 0-2.784.334-3.6 1.003-.792.67-1.188 1.835-1.188 3.497v8.935h-5.04V10.022h5.04v2.784Zm21.574 12.593c-.552.82-1.452 1.511-2.7 2.072-1.248.54-2.592.81-4.032.81-1.248 0-2.376-.227-3.384-.68-1.008-.453-1.8-1.08-2.376-1.878-.576-.799-.864-1.716-.864-2.752 0-1.662.684-3.021 2.052-4.079 1.392-1.058 3.468-1.586 6.228-1.586h5.076c-.048-1.144-.42-2.05-1.116-2.72-.672-.69-1.608-1.036-2.808-1.036-1.056 0-1.932.26-2.628.777-.696.497-1.14 1.198-1.332 2.105h-5.04a7.875 7.875 0 0 1 1.548-3.464 7.994 7.994 0 0 1 3.168-2.396c1.32-.583 2.796-.874 4.428-.874 1.68 0 3.192.313 4.536.939 1.335.598 2.448 1.531 3.204 2.687.768 1.165 1.152 2.536 1.152 4.111v10.522h-5.112v-2.558Zm-5.256-.777c.84 0 1.656-.162 2.448-.485a4.864 4.864 0 0 0 2.016-1.457c.528-.648.792-1.414.792-2.299v-.13h-4.788c-1.152 0-2.016.206-2.592.616-.552.41-.828.95-.828 1.619 0 .647.252 1.165.756 1.554.528.388 1.26.582 2.196.582Zm20.997-10.877v14.212h-5.112V13.745h-2.268v-3.723h2.268v-.907c0-2.201.696-3.82 2.088-4.856 1.392-1.036 3.492-1.522 6.3-1.457v3.82c-1.224-.021-2.076.162-2.556.55-.48.39-.72 1.09-.72 2.105v.745h6.55V5.586h5.076v4.436h4.464v3.723h-4.464v8.676c0 .604.156 1.047.468 1.327.336.26.888.389 1.656.389h2.34v3.82h-3.168c-4.248 0-6.372-1.856-6.372-5.569v-8.643h-6.55Z" fill="#fff"/></svg>